<svg width="24" height="24" viewBox="0 0 24 24" fill="none" xmlns="http://www.w3.org/2000/svg">
<g clip-path="url(#clip0)">
<rect width="24" height="24" rx="12" fill="#224978"/>
<g filter="url(#filter0_d)">
<path d="M12.704 13.348C12.808 13.348 12.888 13.4 12.944 13.504C13.008 13.6 13.04 13.724 13.04 13.876C13.04 14.06 13.012 14.204 12.956 14.308C12.9 14.412 12.812 14.504 12.692 14.584C12.22 14.896 11.468 15.408 10.436 16.12C10.124 17.776 9.72 19.08 9.224 20.032C8.728 20.984 8.1 21.46 7.34 21.46C6.932 21.46 6.6 21.332 6.344 21.076C6.088 20.828 5.96 20.5 5.96 20.092C5.96 19.716 6.044 19.336 6.212 18.952C6.38 18.568 6.692 18.124 7.148 17.62C7.612 17.116 8.264 16.54 9.104 15.892L9.14 15.664C8.508 15.928 7.888 16.06 7.28 16.06C6.384 16.06 5.596 15.888 4.916 15.544C4.236 15.192 3.708 14.696 3.332 14.056C2.956 13.416 2.768 12.672 2.768 11.824C2.768 10.64 2.992 9.596 3.44 8.692C3.888 7.78 4.504 7.076 5.288 6.58C6.08 6.076 6.964 5.824 7.94 5.824C8.876 5.824 9.576 6.044 10.04 6.484C10.512 6.916 10.748 7.492 10.748 8.212C10.748 8.684 10.66 9.064 10.484 9.352C10.316 9.632 10.072 9.772 9.752 9.772C9.536 9.772 9.36 9.72 9.224 9.616C9.096 9.512 9.032 9.368 9.032 9.184C9.032 9.104 9.048 8.968 9.08 8.776C9.128 8.552 9.152 8.376 9.152 8.248C9.152 7.912 9.048 7.652 8.84 7.468C8.64 7.284 8.3 7.192 7.82 7.192C7.236 7.192 6.692 7.36 6.188 7.696C5.692 8.032 5.292 8.536 4.988 9.208C4.684 9.872 4.532 10.672 4.532 11.608C4.532 12.568 4.792 13.312 5.312 13.84C5.84 14.36 6.6 14.62 7.592 14.62C8.144 14.62 8.72 14.496 9.32 14.248L9.488 12.784H8.264C8.04 12.784 7.868 12.732 7.748 12.628C7.628 12.516 7.568 12.336 7.568 12.088C7.568 11.864 7.628 11.688 7.748 11.56C7.868 11.432 8.028 11.368 8.228 11.368H10.472C10.648 11.368 10.792 11.428 10.904 11.548C11.024 11.66 11.072 11.824 11.048 12.04C11.024 12.296 10.944 12.876 10.808 13.78L10.676 14.692C11.316 14.212 11.9 13.796 12.428 13.444C12.532 13.38 12.624 13.348 12.704 13.348ZM7.472 20.296C7.68 20.296 7.908 20.06 8.156 19.588C8.404 19.116 8.636 18.356 8.852 17.308C8.244 17.828 7.804 18.296 7.532 18.712C7.268 19.136 7.136 19.508 7.136 19.828C7.136 20.14 7.248 20.296 7.472 20.296ZM22.1426 8.32C22.1426 9 21.9026 9.588 21.4226 10.084C20.9426 10.572 20.2426 10.924 19.3226 11.14C19.8186 11.276 20.1946 11.5 20.4506 11.812C20.7066 12.116 20.8346 12.468 20.8346 12.868C20.8346 13.5 20.6346 14.048 20.2346 14.512C19.8426 14.976 19.2666 15.336 18.5066 15.592C17.7466 15.84 16.8306 15.964 15.7586 15.964C15.3586 15.964 15.0386 15.952 14.7986 15.928C14.7906 16.152 14.6946 16.32 14.5106 16.432C14.3266 16.544 14.0906 16.6 13.8026 16.6C13.5146 16.6 13.3146 16.536 13.2026 16.408C13.0986 16.28 13.0546 16.092 13.0706 15.844C13.1426 14.724 13.2826 13.552 13.4906 12.328C13.6986 11.096 13.9626 9.908 14.2826 8.764C14.3386 8.564 14.4506 8.424 14.6186 8.344C14.7866 8.264 15.0066 8.224 15.2786 8.224C15.7666 8.224 16.0106 8.36 16.0106 8.632C16.0106 8.744 15.9866 8.872 15.9386 9.016C15.7306 9.64 15.5226 10.488 15.3146 11.56C15.1066 12.624 14.9586 13.64 14.8706 14.608C15.2546 14.64 15.5666 14.656 15.8066 14.656C16.9266 14.656 17.7466 14.496 18.2666 14.176C18.7946 13.848 19.0586 13.432 19.0586 12.928C19.0586 12.576 18.9066 12.28 18.6026 12.04C18.3066 11.8 17.8066 11.668 17.1026 11.644C16.9426 11.636 16.8306 11.596 16.7666 11.524C16.7026 11.452 16.6706 11.336 16.6706 11.176C16.6706 10.944 16.7186 10.756 16.8146 10.612C16.9106 10.468 17.0866 10.392 17.3426 10.384C17.9106 10.368 18.4226 10.284 18.8786 10.132C19.3426 9.98 19.7066 9.768 19.9706 9.496C20.2346 9.216 20.3666 8.892 20.3666 8.524C20.3666 8.06 20.1386 7.696 19.6826 7.432C19.2266 7.16 18.5266 7.024 17.5826 7.024C16.7266 7.024 15.8986 7.136 15.0986 7.36C14.2986 7.576 13.6186 7.852 13.0586 8.188C12.8026 8.34 12.5866 8.416 12.4106 8.416C12.2666 8.416 12.1546 8.368 12.0746 8.272C12.0026 8.168 11.9666 8.04 11.9666 7.888C11.9666 7.688 12.0066 7.516 12.0866 7.372C12.1746 7.228 12.3786 7.064 12.6986 6.88C13.3706 6.496 14.1586 6.196 15.0626 5.98C15.9666 5.764 16.8906 5.656 17.8346 5.656C19.2826 5.656 20.3626 5.9 21.0746 6.388C21.7866 6.876 22.1426 7.52 22.1426 8.32Z" fill="white"/>
</g>
</g>
<defs>
<filter id="filter0_d" x="-17.232" y="-4.34399" width="59.3746" height="55.804" filterUnits="userSpaceOnUse" color-interpolation-filters="sRGB">
<feFlood flood-opacity="0" result="BackgroundImageFix"/>
<feColorMatrix in="SourceAlpha" type="matrix" values="0 0 0 0 0 0 0 0 0 0 0 0 0 0 0 0 0 0 127 0"/>
<feOffset dy="10"/>
<feGaussianBlur stdDeviation="10"/>
<feColorMatrix type="matrix" values="0 0 0 0 0.27451 0 0 0 0 0.384314 0 0 0 0 0.537255 0 0 0 1 0"/>
<feBlend mode="normal" in2="BackgroundImageFix" result="effect1_dropShadow"/>
<feBlend mode="normal" in="SourceGraphic" in2="effect1_dropShadow" result="shape"/>
</filter>
<clipPath id="clip0">
<rect width="24" height="24" rx="12" fill="white"/>
</clipPath>
</defs>
</svg>
